# 3ds Max Wavefront OBJ Exporter v0.97b - (c)2007 guruware
# File Created: 12.12.2018 21:00:58

mtllib plane.mtl

#
# object Plane001
#

v  -0.5000 0.5000 0.0000
v  -0.5000 -0.5000 -0.0000
v  0.5000 -0.5000 -0.0000
v  0.5000 0.5000 0.0000
# 4 vertices

vn 0.0000 -0.0000 1.0000
# 1 vertex normals

vt 0.0000 1.0000 0.0000
vt 0.0000 0.0000 0.0000
vt 1.0000 0.0000 0.0000
vt 1.0000 1.0000 0.0000
# 4 texture coords

o Plane001
g Plane001
usemtl wire_027177148
s 1
f 1/1/1 2/2/1 3/3/1 4/4/1 
# 1 polygons

